<mxfile host="65bd71144e">
    <diagram id="p6LtrDmTwn3lyzMPbI3E" name="Page-1">
        <mxGraphModel dx="4944" dy="2340" grid="1" gridSize="10" guides="1" tooltips="1" connect="1" arrows="1" fold="1" page="1" pageScale="1" pageWidth="1920" pageHeight="1200" math="0" shadow="0">
            <root>
                <mxCell id="0"/>
                <mxCell id="1" parent="0"/>
                <mxCell id="37" value="" style="group" vertex="1" connectable="0" parent="1">
                    <mxGeometry x="90" y="30" width="850" height="1130" as="geometry"/>
                </mxCell>
                <mxCell id="36" value="" style="rounded=0;whiteSpace=wrap;html=1;labelBackgroundColor=none;fontSize=16;fontColor=#000000;" vertex="1" parent="37">
                    <mxGeometry width="850" height="1130" as="geometry"/>
                </mxCell>
                <mxCell id="10" value="Return ข้อความที่เป็นตัวพิมพ์ใหญ์พร้อมแทนช่องว่างเป็นเครื่องหมายลบ" style="rounded=1;whiteSpace=wrap;html=1;fontSize=16;arcSize=50;fillColor=#e1d5e7;strokeColor=#9673a6;" parent="36" vertex="1">
                    <mxGeometry x="26.659999999999997" y="600" width="363.75" height="97" as="geometry"/>
                </mxCell>
                <mxCell id="3" value="&lt;div style=&quot;font-family: Consolas, &amp;quot;Courier New&amp;quot;, monospace; font-size: 16px; line-height: 19px;&quot;&gt;format_strings(*args)&lt;/div&gt;" style="rounded=1;whiteSpace=wrap;html=1;arcSize=50;fillColor=#e1d5e7;strokeColor=#9673a6;" parent="37" vertex="1">
                    <mxGeometry x="110" y="30" width="200" height="60" as="geometry"/>
                </mxCell>
                <mxCell id="4" value="&lt;font style=&quot;font-size: 16px;&quot;&gt;ต่อสมาชิกที่รับมาจาก parameter เป็นข้อความเดียว&lt;/font&gt;" style="rounded=0;whiteSpace=wrap;html=1;fillColor=#fff2cc;strokeColor=#d6b656;" parent="37" vertex="1">
                    <mxGeometry x="26.659999999999997" y="160" width="366.67" height="80" as="geometry"/>
                </mxCell>
                <mxCell id="6" value="" style="edgeStyle=none;html=1;fontSize=16;" parent="37" source="3" target="4" edge="1">
                    <mxGeometry relative="1" as="geometry"/>
                </mxCell>
                <mxCell id="5" value="&lt;font style=&quot;font-size: 16px;&quot;&gt;เปลี่ยนตัวอักษรทั้งหมดเป็นตัวพิมพ์ใหญ่&lt;/font&gt;" style="rounded=0;whiteSpace=wrap;html=1;fillColor=#fff2cc;strokeColor=#d6b656;" parent="37" vertex="1">
                    <mxGeometry x="26.659999999999997" y="310" width="366.67" height="70" as="geometry"/>
                </mxCell>
                <mxCell id="7" value="" style="edgeStyle=none;html=1;fontSize=16;" parent="37" source="4" target="5" edge="1">
                    <mxGeometry relative="1" as="geometry"/>
                </mxCell>
                <mxCell id="8" value="&lt;font style=&quot;font-size: 16px;&quot;&gt;แทนตัวอักษรที่เป็นช่องว่าง(&quot; &quot;) ทั้งหมดในข้อความเป็นเครื่องหมายลบ(&quot;-&quot;)&lt;/font&gt;" style="rounded=0;whiteSpace=wrap;html=1;fillColor=#fff2cc;strokeColor=#d6b656;" parent="37" vertex="1">
                    <mxGeometry x="26.659999999999997" y="450" width="366.67" height="70" as="geometry"/>
                </mxCell>
                <mxCell id="9" value="" style="edgeStyle=none;html=1;fontSize=16;" parent="37" source="5" target="8" edge="1">
                    <mxGeometry relative="1" as="geometry"/>
                </mxCell>
                <mxCell id="11" value="" style="edgeStyle=none;html=1;fontSize=16;" parent="37" source="8" target="10" edge="1">
                    <mxGeometry relative="1" as="geometry"/>
                </mxCell>
                <mxCell id="12" value="Start" style="rounded=1;whiteSpace=wrap;html=1;fontSize=16;arcSize=50;fillColor=#f8cecc;strokeColor=#b85450;" parent="37" vertex="1">
                    <mxGeometry x="620" y="40" width="120" height="60" as="geometry"/>
                </mxCell>
                <mxCell id="13" value="End" style="rounded=1;whiteSpace=wrap;html=1;fontSize=16;arcSize=50;fillColor=#f8cecc;strokeColor=#b85450;" vertex="1" parent="37">
                    <mxGeometry x="620" y="1050" width="120" height="60" as="geometry"/>
                </mxCell>
                <mxCell id="16" value="" style="group" vertex="1" connectable="0" parent="37">
                    <mxGeometry x="555" y="150" width="250" height="100" as="geometry"/>
                </mxCell>
                <mxCell id="14" value="" style="shape=process;whiteSpace=wrap;html=1;backgroundOutline=1;labelBackgroundColor=none;fillColor=#e1d5e7;strokeColor=#9673a6;" vertex="1" parent="16">
                    <mxGeometry width="250" height="100" as="geometry"/>
                </mxCell>
                <mxCell id="15" value="&lt;div style=&quot;font-family: Consolas, &amp;quot;Courier New&amp;quot;, monospace; font-size: 14px; line-height: 19px;&quot;&gt;format_strings(&quot;Hello&quot;, &quot;world&quot;, &quot;this&quot;, &quot;is&quot;, &quot;a&quot;, &quot;test&quot;)&lt;/div&gt;&lt;div style=&quot;font-family: Consolas, &amp;quot;Courier New&amp;quot;, monospace; font-size: 14px; line-height: 19px;&quot;&gt;แล้วเก็บลงตัวแปร result&lt;/div&gt;" style="text;strokeColor=none;align=center;fillColor=none;html=1;verticalAlign=middle;whiteSpace=wrap;rounded=0;labelBackgroundColor=none;fontSize=13;fontColor=#000000;" vertex="1" parent="16">
                    <mxGeometry x="30" y="20" width="190" height="60" as="geometry"/>
                </mxCell>
                <mxCell id="26" value="" style="edgeStyle=none;html=1;fontSize=16;fontColor=#000000;entryX=0.5;entryY=0;entryDx=0;entryDy=0;" edge="1" parent="37" source="12" target="14">
                    <mxGeometry relative="1" as="geometry">
                        <mxPoint x="680" y="140" as="targetPoint"/>
                    </mxGeometry>
                </mxCell>
                <mxCell id="17" value="แสดง &quot;&lt;span style=&quot;font-family: Consolas, &amp;quot;Courier New&amp;quot;, monospace; font-size: 14px;&quot;&gt;HELLOWORLDTHISISATEST&lt;/span&gt;&quot;" style="strokeWidth=2;html=1;shape=mxgraph.flowchart.display;whiteSpace=wrap;labelBackgroundColor=none;fontSize=16;fillColor=#d5e8d4;strokeColor=#82b366;" vertex="1" parent="37">
                    <mxGeometry x="581.67" y="295" width="196.66" height="100" as="geometry"/>
                </mxCell>
                <mxCell id="18" value="" style="group" vertex="1" connectable="0" parent="37">
                    <mxGeometry x="555" y="440" width="250" height="100" as="geometry"/>
                </mxCell>
                <mxCell id="19" value="" style="shape=process;whiteSpace=wrap;html=1;backgroundOutline=1;labelBackgroundColor=none;fillColor=#e1d5e7;strokeColor=#9673a6;" vertex="1" parent="18">
                    <mxGeometry width="250" height="100" as="geometry"/>
                </mxCell>
                <mxCell id="20" value="&lt;div style=&quot;font-family: Consolas, &amp;quot;Courier New&amp;quot;, monospace; font-size: 14px; line-height: 19px;&quot;&gt;format_strings(&quot;Python&quot;, &quot;is&quot;, &quot;fun&quot;)&lt;br&gt;&lt;/div&gt;&lt;div style=&quot;font-family: Consolas, &amp;quot;Courier New&amp;quot;, monospace; font-size: 14px; line-height: 19px;&quot;&gt;แล้วเก็บลงตัวแปร result&lt;/div&gt;" style="text;strokeColor=none;align=center;fillColor=none;html=1;verticalAlign=middle;whiteSpace=wrap;rounded=0;labelBackgroundColor=none;fontSize=13;fontColor=#000000;" vertex="1" parent="18">
                    <mxGeometry x="30" y="20" width="190" height="60" as="geometry"/>
                </mxCell>
                <mxCell id="21" value="แสดง &quot;&lt;span style=&quot;font-family: Consolas, &amp;quot;Courier New&amp;quot;, monospace; font-size: 14px;&quot;&gt;PYTHONISFUN&lt;/span&gt;&quot;" style="strokeWidth=2;html=1;shape=mxgraph.flowchart.display;whiteSpace=wrap;labelBackgroundColor=none;fontSize=16;fillColor=#d5e8d4;strokeColor=#82b366;" vertex="1" parent="37">
                    <mxGeometry x="581.67" y="580" width="196.66" height="100" as="geometry"/>
                </mxCell>
                <mxCell id="30" style="edgeStyle=none;html=1;entryX=0.5;entryY=0;entryDx=0;entryDy=0;fontSize=16;fontColor=#000000;" edge="1" parent="37" source="17" target="19">
                    <mxGeometry relative="1" as="geometry"/>
                </mxCell>
                <mxCell id="22" value="" style="group" vertex="1" connectable="0" parent="37">
                    <mxGeometry x="555" y="730" width="250" height="100" as="geometry"/>
                </mxCell>
                <mxCell id="23" value="" style="shape=process;whiteSpace=wrap;html=1;backgroundOutline=1;labelBackgroundColor=none;fillColor=#e1d5e7;strokeColor=#9673a6;" vertex="1" parent="22">
                    <mxGeometry width="250" height="100" as="geometry"/>
                </mxCell>
                <mxCell id="24" value="&lt;div style=&quot;font-family: Consolas, &amp;quot;Courier New&amp;quot;, monospace; font-size: 14px; line-height: 19px;&quot;&gt;format_strings(&quot;Hello world&quot;)&lt;br&gt;&lt;/div&gt;&lt;div style=&quot;font-family: Consolas, &amp;quot;Courier New&amp;quot;, monospace; font-size: 14px; line-height: 19px;&quot;&gt;แล้วเก็บลงตัวแปร result&lt;/div&gt;" style="text;strokeColor=none;align=center;fillColor=none;html=1;verticalAlign=middle;whiteSpace=wrap;rounded=0;labelBackgroundColor=none;fontSize=13;fontColor=#000000;" vertex="1" parent="22">
                    <mxGeometry x="30" y="20" width="190" height="60" as="geometry"/>
                </mxCell>
                <mxCell id="35" value="" style="edgeStyle=none;html=1;fontSize=16;fontColor=#000000;" edge="1" parent="37" source="25" target="13">
                    <mxGeometry relative="1" as="geometry"/>
                </mxCell>
                <mxCell id="25" value="แสดง &quot;&lt;span style=&quot;font-family: Consolas, &amp;quot;Courier New&amp;quot;, monospace; font-size: 14px;&quot;&gt;HELLO-WORLD&lt;/span&gt;&quot;" style="strokeWidth=2;html=1;shape=mxgraph.flowchart.display;whiteSpace=wrap;labelBackgroundColor=none;fontSize=16;fillColor=#d5e8d4;strokeColor=#82b366;" vertex="1" parent="37">
                    <mxGeometry x="581.67" y="880" width="196.66" height="100" as="geometry"/>
                </mxCell>
                <mxCell id="27" value="" style="edgeStyle=none;html=1;fontSize=16;fontColor=#000000;" edge="1" parent="37" source="14" target="17">
                    <mxGeometry relative="1" as="geometry"/>
                </mxCell>
                <mxCell id="33" style="edgeStyle=none;html=1;entryX=0.5;entryY=0;entryDx=0;entryDy=0;fontSize=16;fontColor=#000000;" edge="1" parent="37" source="21" target="23">
                    <mxGeometry relative="1" as="geometry"/>
                </mxCell>
                <mxCell id="31" style="edgeStyle=none;html=1;entryX=0.5;entryY=0;entryDx=0;entryDy=0;entryPerimeter=0;fontSize=16;fontColor=#000000;" edge="1" parent="37" source="19" target="21">
                    <mxGeometry relative="1" as="geometry"/>
                </mxCell>
                <mxCell id="34" value="" style="edgeStyle=none;html=1;fontSize=16;fontColor=#000000;" edge="1" parent="37" source="23" target="25">
                    <mxGeometry relative="1" as="geometry"/>
                </mxCell>
            </root>
        </mxGraphModel>
    </diagram>
</mxfile>